<svg width="70" height="70" viewBox="0 0 70 70" fill="none" xmlns="http://www.w3.org/2000/svg">
<path d="M30.8 44.8374C23.8 46.9374 23.8 41.3374 21 40.6374M40.6 49.0374V43.6194C40.6525 42.9518 40.5623 42.2807 40.3354 41.6507C40.1085 41.0207 39.7501 40.4462 39.284 39.9654C43.68 39.4754 48.3 37.8094 48.3 30.1654C48.2996 28.2107 47.5478 26.331 46.2 24.9154C46.8382 23.2053 46.7931 21.3151 46.074 19.6374C46.074 19.6374 44.422 19.1474 40.6 21.7094C37.3912 20.8397 34.0088 20.8397 30.8 21.7094C26.978 19.1474 25.326 19.6374 25.326 19.6374C24.6069 21.3151 24.5618 23.2053 25.2 24.9154C23.8422 26.3415 23.0895 28.2382 23.1 30.2074C23.1 37.7954 27.72 39.4614 32.116 40.0074C31.6554 40.4833 31.3002 41.0509 31.0734 41.6733C30.8467 42.2956 30.7535 42.9587 30.8 43.6194V49.0374" stroke="#EF731B" stroke-width="2" stroke-linecap="round" stroke-linejoin="round"/>
<circle cx="35" cy="35" r="34" stroke="#EF731B" stroke-width="2"/>
</svg>
