<svg width="70" height="70" viewBox="0 0 70 70" fill="none" xmlns="http://www.w3.org/2000/svg">
<circle cx="35" cy="35" r="34" stroke="#EF731B" stroke-width="2"/>
<path d="M38.9626 26.5428C40.3187 26.8068 41.5649 27.4688 42.5419 28.4439C43.5188 29.419 44.182 30.6628 44.4466 32.0163M38.9626 21C41.78 21.3124 44.4072 22.5716 46.4128 24.5709C48.4185 26.5703 49.6835 29.1909 50 32.0024M48.6117 43.0603V47.2174C48.6132 47.6033 48.534 47.9853 48.3791 48.3389C48.2242 48.6925 47.997 49.0099 47.7121 49.2708C47.4272 49.5317 47.0908 49.7303 46.7245 49.8539C46.3583 49.9776 45.9701 50.0235 45.585 49.9888C41.3129 49.5254 37.2091 48.0684 33.6036 45.7347C30.2491 43.6072 27.4051 40.7686 25.2735 37.4205C22.9272 33.8055 21.467 29.6897 21.0113 25.4065C20.9766 25.0233 21.0222 24.6371 21.1452 24.2725C21.2683 23.9079 21.4661 23.5728 21.7259 23.2886C21.9858 23.0045 22.3022 22.7774 22.6548 22.622C23.0074 22.4665 23.3886 22.3861 23.7741 22.3857H27.9391C28.6129 22.3791 29.2661 22.6172 29.777 23.0557C30.2878 23.4942 30.6215 24.1032 30.7158 24.7691C30.8916 26.0995 31.2176 27.4057 31.6877 28.6629C31.8745 29.1589 31.9149 29.6979 31.8042 30.2161C31.6934 30.7343 31.4362 31.21 31.0629 31.5867L29.2997 33.3465C31.2761 36.8157 34.154 39.6881 37.6298 41.6607L39.393 39.9009C39.7705 39.5283 40.2471 39.2716 40.7663 39.1611C41.2854 39.0505 41.8255 39.0909 42.3224 39.2773C43.582 39.7465 44.8908 40.0719 46.2237 40.2473C46.8981 40.3423 47.514 40.6813 47.9543 41.2C48.3946 41.7186 48.6285 42.3807 48.6117 43.0603Z" stroke="#EF731B" stroke-width="2" stroke-linecap="round" stroke-linejoin="round"/>
</svg>
