<svg width="70" height="70" viewBox="0 0 70 70" fill="none" xmlns="http://www.w3.org/2000/svg">
<circle cx="35" cy="35" r="34" stroke="#EF731B" stroke-width="2"/>
<path d="M42 21H28C24.134 21 21 24.134 21 28V42C21 45.866 24.134 49 28 49H42C45.866 49 49 45.866 49 42V28C49 24.134 45.866 21 42 21Z" stroke="#EF731B" stroke-width="2" stroke-linecap="round" stroke-linejoin="round"/>
<path d="M40.6 34.1179C40.7728 35.2831 40.5738 36.473 40.0313 37.5186C39.4888 38.5641 38.6304 39.4119 37.5783 39.9415C36.5262 40.471 35.3338 40.6554 34.1709 40.4682C33.008 40.2811 31.9337 39.732 31.1008 38.8992C30.2679 38.0663 29.7188 36.992 29.5317 35.829C29.3446 34.6661 29.5289 33.4738 30.0585 32.4217C30.588 31.3695 31.4359 30.5112 32.4814 29.9687C33.5269 29.4262 34.7169 29.2272 35.882 29.3999C37.0705 29.5762 38.1708 30.13 39.0204 30.9796C39.87 31.8291 40.4238 32.9294 40.6 34.1179Z" stroke="#EF731B" stroke-width="2" stroke-linecap="round" stroke-linejoin="round"/>
<path d="M42.7 27.3H42.7144" stroke="#EF731B" stroke-width="2" stroke-linecap="round" stroke-linejoin="round"/>
</svg>
