<svg width="920" height="402" viewBox="0 0 920 402" fill="none" xmlns="http://www.w3.org/2000/svg">
<path d="M85.1057 21.3191C84.4864 120.11 83.8671 218.896 83.2477 317.682C75.7402 317.389 68.2326 317.096 60.7251 316.798C61.3293 233.834 61.9411 150.864 62.5529 67.8994C49.9547 65.1133 37.3565 62.3272 24.7659 59.5411C23.9955 144.791 23.2251 230.046 22.4547 315.296C14.9698 315.003 7.48489 314.71 0 314.417C1.04985 209.611 2.09214 104.806 3.14199 0C30.4607 7.10637 57.787 14.2127 85.1057 21.3191ZM121.186 146.08C120.808 231.223 120.423 316.367 120.045 401.515C112.825 401.675 105.612 401.84 98.3988 402C98.9502 301.525 99.5091 201.051 100.068 100.576C106.692 101.918 113.316 103.261 119.94 104.603C120.355 118.448 120.77 132.272 121.186 146.08ZM167.266 215.317C167.258 216.654 167.258 217.991 167.258 219.328C167.228 234.356 166.579 248.233 165.31 261.013C164.041 273.659 162.16 284.702 159.653 294.158C157.19 303.624 154.154 310.992 150.544 316.26C146.941 321.395 142.764 323.915 138.014 323.745C133.505 323.58 129.592 320.762 126.307 315.232C123.059 309.575 120.332 301.792 118.119 291.873C115.959 281.82 114.222 270.356 112.908 257.491C111.639 244.499 110.672 230.627 110.015 215.903C110.03 213.175 110.045 210.448 110.053 207.715C110.869 192.234 111.986 177.952 113.421 164.885C114.857 151.823 116.692 140.657 118.928 131.404C121.163 122.012 123.905 114.954 127.16 110.213C130.415 105.472 134.275 103.586 138.731 104.507C143.376 105.461 147.485 108.849 151.073 114.597C154.653 120.35 157.644 128.128 160.038 137.924C162.477 147.598 164.298 158.961 165.506 172.034C166.707 185.112 167.296 199.522 167.266 215.317ZM145.755 216.766C145.755 215.407 145.763 214.043 145.77 212.685C145.793 204.135 145.589 196.272 145.159 189.081C144.721 181.761 144.011 175.363 143.029 169.882C142.039 164.278 140.733 159.84 139.094 156.569C137.462 153.304 135.461 151.461 133.089 151.061C130.529 150.629 128.361 151.445 126.571 153.517C124.781 155.584 123.323 158.839 122.205 163.287C121.095 167.596 120.272 173.019 119.736 179.556C119.245 186.097 118.965 193.598 118.875 202.052C118.844 209.324 118.814 216.595 118.776 223.867C118.776 233.791 119.222 242.698 120.098 250.577C121.027 258.322 122.492 264.449 124.502 268.95C126.548 273.324 129.298 275.62 132.742 275.87C135.174 276.046 137.205 274.687 138.822 271.816C140.491 268.817 141.813 264.566 142.795 259.068C143.822 253.576 144.554 247.226 144.992 240.008C145.476 232.8 145.725 225.055 145.755 216.766ZM199.879 242.581C207.477 202.777 215.023 163.718 222.515 125.4C229.622 126.844 236.722 128.282 243.829 129.721C243.98 194.482 244.131 259.244 244.282 324.006C237.1 323.723 229.909 323.441 222.727 323.159C222.689 283.195 222.644 243.225 222.598 203.261C215.076 242.181 207.492 281.852 199.864 322.264C192.651 321.981 185.446 321.694 178.24 321.411C178.338 253.102 178.437 184.792 178.535 116.483C185.665 117.932 192.787 119.375 199.917 120.819C199.902 161.406 199.894 201.993 199.879 242.581ZM295.665 249.224C287.961 248.409 280.264 247.588 272.56 246.768C272.47 235.192 272.372 223.616 272.281 212.04C278.64 212.909 285 213.772 291.352 214.64C293.55 214.938 295.332 214.608 296.699 213.655C298.059 212.584 299.033 210.89 299.615 208.578C300.242 206.277 300.544 203.469 300.521 200.166C300.506 196.858 300.279 194.088 299.857 191.856C299.434 189.507 298.784 187.578 297.908 186.065C297.077 184.446 296.042 183.247 294.811 182.47C293.573 181.58 292.13 180.999 290.491 180.722C287.183 180.174 283.875 179.625 280.559 179.076C280.786 227.867 281.02 276.664 281.246 325.455C274.033 325.172 266.828 324.89 259.622 324.608C259.411 260.672 259.199 196.73 258.988 132.794C269.418 134.909 279.841 137.024 290.272 139.139C295.091 140.114 299.426 142.085 303.263 145.009C307.145 147.827 310.446 151.647 313.165 156.447C315.929 161.14 318.066 166.808 319.569 173.456C321.073 179.993 321.858 187.552 321.926 196.171C321.964 201.764 321.458 206.937 320.4 211.71C319.381 216.494 317.832 220.654 315.755 224.202C313.724 227.761 311.208 230.605 308.202 232.726C305.196 234.734 301.722 235.805 297.787 235.911C297.077 240.338 296.375 244.781 295.665 249.224ZM296.095 326.041C286.699 325.673 277.304 325.3 267.908 324.933C270.181 310.885 272.447 296.917 274.705 283.03C281.76 283.562 288.814 284.095 295.861 284.628C298.021 284.787 299.789 284.292 301.156 283.141C302.53 281.879 303.527 280.025 304.154 277.575C304.826 275.018 305.151 271.864 305.128 268.119C305.106 264.592 304.789 261.497 304.177 258.823C303.61 256.042 302.628 253.837 301.246 252.212C299.864 250.476 297.999 249.474 295.665 249.224C289.547 248.574 283.421 247.924 277.304 247.274C277.304 235.757 277.296 224.24 277.289 212.722C284.033 213.644 290.785 214.56 297.53 215.482C299.207 220.281 300.876 225.06 302.553 229.817C308.051 231.298 312.553 234.345 316.065 238.916C319.622 243.38 322.251 248.766 323.943 255.078C325.687 261.401 326.586 268.22 326.647 275.582C326.715 284.164 326.103 291.633 324.819 298.025C323.535 304.418 321.579 309.729 318.943 313.969C316.344 318.103 313.127 321.225 309.267 323.329C305.461 325.322 301.073 326.232 296.095 326.041ZM373.233 332.273C367.289 332.06 361.941 329.668 357.205 325.023C352.462 320.378 348.421 314.017 345.083 305.926C341.79 297.727 339.252 288.298 337.47 277.665C335.68 267.032 334.736 255.701 334.637 243.753C334.622 241.649 334.6 239.544 334.585 237.445C334.471 224.053 335.151 211.811 336.609 200.784C338.066 189.762 340.242 180.387 343.127 172.694C346.065 164.901 349.698 159.222 354.026 155.637C358.353 151.945 363.308 150.72 368.912 151.871C374.147 152.952 378.829 155.941 382.983 160.778C387.122 165.513 390.657 171.81 393.58 179.657C396.495 187.403 398.761 196.475 400.355 206.905C401.994 217.234 402.908 228.65 403.074 241.212C403.165 247.855 403.255 254.498 403.346 261.146C383.361 259.026 363.376 256.911 343.384 254.796C343.286 243.758 343.187 232.726 343.089 221.688C356.035 223.451 368.98 225.214 381.926 226.983C381.911 225.71 381.896 224.437 381.881 223.169C381.805 217.128 381.269 211.769 380.257 207.054C379.282 202.356 377.878 198.627 376.02 195.878C374.215 193.028 371.941 191.366 369.199 190.902C366.601 190.46 364.441 191.382 362.734 193.683C361.027 195.985 359.675 199.436 358.671 204.034C357.712 208.535 357.039 213.9 356.639 220.122C356.246 226.243 356.08 232.885 356.156 240.05C356.171 242.112 356.193 244.174 356.216 246.235C356.284 253.07 356.737 259.356 357.568 265.067C358.406 270.777 359.6 275.705 361.156 279.828C362.712 283.956 364.585 287.227 366.767 289.646C368.95 292.064 371.42 293.369 374.177 293.567C377.576 293.812 380.801 292.554 383.844 289.827C386.881 286.993 389.486 282.465 391.654 276.264C395.113 285.336 398.58 294.323 402.054 303.225C400.604 308.12 398.527 312.835 395.831 317.405C393.172 321.87 389.955 325.508 386.171 328.31C382.379 331.112 378.067 332.449 373.233 332.273ZM451.035 171.73C451.986 225.23 452.938 278.731 453.882 332.236C446.654 331.948 439.426 331.666 432.19 331.384C431.329 276.717 430.461 222.05 429.592 167.383C436.737 168.832 443.89 170.281 451.035 171.73ZM474.6 176.503C474.826 188.138 475.06 199.767 475.295 211.401C469.441 210.426 463.588 209.457 457.734 208.487C440.808 205.675 423.882 202.867 406.956 200.054C406.782 187.6 406.609 175.145 406.435 162.69C423.316 166.11 440.196 169.53 457.077 172.955C462.923 174.138 468.761 175.321 474.6 176.503ZM506.715 130.988C506.934 177.494 507.153 224.128 507.357 270.9C501.465 270.266 495.574 269.632 489.683 269.003C487.802 221.166 485.929 173.195 484.063 125.097C491.616 127.057 499.162 129.023 506.715 130.988ZM487.379 313.218C487.251 306.82 488.24 301.493 490.347 297.285C492.462 293.076 495.332 291.143 498.958 291.452C502.538 291.755 505.453 294.163 507.712 298.627C510.015 303.097 511.239 308.435 511.39 314.673C511.533 321.001 510.551 326.248 508.444 330.457C506.375 334.564 503.542 336.578 499.947 336.445C496.307 336.311 493.338 334.079 491.035 329.7C488.731 325.226 487.515 319.717 487.379 313.218ZM612.878 273.915C603.897 272.86 594.917 271.811 585.944 270.756C583.55 268.684 581.156 266.595 578.769 264.497C570.612 258.765 564.29 250.785 559.811 240.556C555.325 230.243 552.885 217.485 552.47 202.484C552.1 189.256 553.293 178.512 556.042 170.372C558.837 162.237 562.931 156.654 568.338 153.618C573.739 150.576 580.227 150.107 587.795 152.078C599.539 155.131 611.284 158.189 623.036 161.241C625.212 220.537 627.387 279.833 629.57 339.129C622.039 338.836 614.509 338.538 606.979 338.245C605.272 287.904 603.565 237.563 601.866 187.221C597.523 186.257 593.18 185.298 588.837 184.339C583.656 183.189 579.932 184.824 577.681 189.315C575.468 193.806 574.502 200.752 574.789 210.101C574.993 217.021 575.71 222.743 576.941 227.244C578.21 231.666 579.977 235.032 582.228 237.35C584.524 239.587 587.319 240.945 590.612 241.451C597.666 242.528 604.728 243.609 611.79 244.69C612.153 254.434 612.515 264.172 612.878 273.915ZM593.187 255.638C586.851 282.044 580.461 309.148 574.026 336.951C565.869 336.631 557.719 336.311 549.57 335.992C556.035 307.401 562.455 279.508 568.829 252.319C576.949 253.421 585.068 254.53 593.187 255.638ZM759.313 266.745C759.441 268.955 759.57 271.171 759.698 273.382C760.347 284.692 759.879 294.696 758.293 303.523C756.745 312.35 754.222 319.845 750.718 326.041C747.258 332.241 742.976 337.009 737.87 340.317C732.802 343.551 727.062 345.106 720.665 344.877C714.26 344.643 708.316 342.656 702.855 338.788C697.379 334.852 692.53 329.264 688.308 321.987C684.131 314.71 680.763 305.909 678.21 295.612C675.665 285.315 674.116 273.734 673.565 260.997C673.452 258.504 673.346 256.01 673.24 253.512C672.681 240.775 673.24 229.508 674.894 219.839C676.541 210.091 679.094 202.127 682.545 195.985C686.05 189.848 690.317 185.655 695.363 183.354C700.4 180.978 706.073 180.68 712.372 182.336C718.678 183.999 724.524 187.323 729.932 192.186C735.332 196.986 740.091 203.07 744.222 210.394C748.399 217.735 751.79 226.147 754.411 235.666C757.017 245.116 758.656 255.435 759.313 266.745ZM737.13 270.138C737.009 267.783 736.881 265.423 736.752 263.064C736.337 255.254 735.506 248.286 734.275 242.123C733.036 235.89 731.45 230.547 729.502 226.077C727.553 221.608 725.257 218.049 722.598 215.418C719.94 212.712 717.002 210.98 713.776 210.261C710.408 209.505 707.53 209.942 705.136 211.593C702.742 213.17 700.778 215.919 699.252 219.85C697.772 223.792 696.73 228.885 696.118 235.107C695.544 241.27 695.453 248.499 695.838 256.767C695.959 259.26 696.073 261.758 696.193 264.251C696.579 272.445 697.349 279.801 698.52 286.295C699.736 292.72 701.322 298.201 703.27 302.724C705.219 307.247 707.515 310.704 710.151 313.101C712.825 315.504 715.869 316.814 719.267 317.07C722.53 317.31 725.37 316.441 727.787 314.497C730.242 312.552 732.236 309.564 733.761 305.542C735.279 301.52 736.322 296.566 736.866 290.674C737.462 284.713 737.545 277.878 737.13 270.138ZM819.902 246.507C820.431 254.023 820.967 261.535 821.496 269.051C809.313 267.032 797.122 265.013 784.932 262.994C784.434 255.036 783.935 247.072 783.429 239.113C795.589 241.579 807.742 244.046 819.902 246.507ZM834.992 249.57C837.425 282.204 839.849 314.843 842.281 347.482C835.098 347.2 827.908 346.918 820.725 346.635C818.376 312.84 816.035 279.045 813.686 245.25C820.785 246.688 827.893 248.126 834.992 249.57ZM778.036 238.021C785 239.432 791.964 240.844 798.935 242.256C799.419 259.739 799.894 277.276 800.37 294.866C800.589 302.34 800.423 308.855 799.879 314.438C799.373 320.021 798.497 324.767 797.236 328.678C796.027 332.593 794.464 335.773 792.553 338.213C790.65 340.653 788.391 342.416 785.793 343.487C783.248 344.568 780.4 345.053 777.273 344.931C775.083 344.845 772.893 344.76 770.71 344.675C770.106 336.476 769.509 328.273 768.912 320.069C769.751 319.994 770.597 319.925 771.435 319.856C772.802 319.76 773.958 319.249 774.909 318.322C775.906 317.405 776.715 316.042 777.334 314.241C778.006 312.441 778.52 310.107 778.897 307.241C779.267 304.37 779.494 301.003 779.577 297.13C779.698 293.194 779.668 288.655 779.486 283.514C779.003 268.316 778.52 253.155 778.036 238.021ZM868.973 301.84C876.156 302.713 883.346 303.582 890.536 304.455C885.038 318.652 879.501 333.408 873.92 348.724C866.692 348.441 859.456 348.159 852.228 347.871C857.847 331.97 863.429 316.628 868.973 301.84ZM878.973 258.482C889.925 260.704 900.876 262.925 911.828 265.146C914.554 293.609 917.273 322.072 920 350.535C912.817 350.252 905.635 349.97 898.444 349.688C896.39 326.664 894.335 303.64 892.281 280.616C888.429 279.977 884.57 279.338 880.71 278.699C878.293 278.294 876.284 278.512 874.69 279.37C873.142 280.233 872.032 281.511 871.36 283.205C870.687 284.841 870.423 286.577 870.574 288.405C870.725 290.227 871.284 292.054 872.251 293.876C873.218 295.692 874.57 297.274 876.314 298.617C878.051 299.906 880.136 300.694 882.56 300.998C889.222 301.834 895.884 302.671 902.538 303.507C903.051 309.09 903.565 314.667 904.079 320.25C897.402 319.621 890.725 318.988 884.048 318.359C879.048 317.885 874.471 316.734 870.31 314.843C866.201 312.963 862.613 310.507 859.554 307.454C856.496 304.402 854.064 300.918 852.266 297.013C850.506 293.055 849.456 288.841 849.116 284.404C848.754 279.727 849.177 275.524 850.37 271.827C851.571 268.135 853.444 265.109 855.997 262.776C858.595 260.384 861.828 258.823 865.71 258.077C869.592 257.326 874.011 257.475 878.973 258.482Z" fill="#EF731B"/>
</svg>
