<svg width="66" height="28" viewBox="0 0 66 28" fill="none" xmlns="http://www.w3.org/2000/svg">
<path d="M0.6875 27V0.818181H11.9886C13.9318 0.818181 15.6321 1.2017 17.0895 1.96875C18.5469 2.73579 19.6804 3.81392 20.4901 5.20312C21.2997 6.59233 21.7045 8.21591 21.7045 10.0739C21.7045 11.9489 21.2869 13.5724 20.4517 14.9446C19.625 16.3168 18.4616 17.3736 16.9616 18.1151C15.4702 18.8565 13.7273 19.2273 11.733 19.2273H4.98295V13.7045H10.3011C11.1364 13.7045 11.848 13.5597 12.4361 13.2699C13.0327 12.9716 13.4886 12.5497 13.804 12.0043C14.1278 11.4588 14.2898 10.8153 14.2898 10.0739C14.2898 9.32386 14.1278 8.68466 13.804 8.15625C13.4886 7.61932 13.0327 7.21023 12.4361 6.92898C11.848 6.6392 11.1364 6.49432 10.3011 6.49432H7.79545V27H0.6875ZM29.0075 27.3068C27.7546 27.3068 26.6467 27.1023 25.6836 26.6932C24.729 26.2756 23.979 25.6449 23.4336 24.8011C22.8881 23.9574 22.6154 22.8835 22.6154 21.5795C22.6154 20.5057 22.7987 19.5895 23.1651 18.831C23.5316 18.0639 24.043 17.4375 24.6992 16.9517C25.3555 16.4659 26.1183 16.0952 26.9876 15.8395C27.8654 15.5838 28.8114 15.4176 29.8256 15.3409C30.9251 15.2557 31.8072 15.1534 32.4719 15.0341C33.1452 14.9062 33.631 14.7315 33.9293 14.5099C34.2276 14.2798 34.3768 13.9773 34.3768 13.6023V13.5511C34.3768 13.0398 34.1808 12.6477 33.7887 12.375C33.3967 12.1023 32.8938 11.9659 32.2802 11.9659C31.6069 11.9659 31.0572 12.1151 30.631 12.4134C30.2134 12.7031 29.962 13.1506 29.8768 13.7557H23.3825C23.4677 12.5625 23.8469 11.4631 24.5202 10.4574C25.2021 9.44318 26.195 8.63352 27.4989 8.02841C28.8029 7.41477 30.4308 7.10795 32.3825 7.10795C33.7887 7.10795 35.0501 7.27415 36.1665 7.60653C37.283 7.9304 38.2333 8.38636 39.0174 8.97443C39.8015 9.55398 40.3981 10.2358 40.8072 11.0199C41.2248 11.7955 41.4336 12.6392 41.4336 13.5511V27H34.837V24.2386H34.6836C34.2915 24.9716 33.8143 25.5639 33.2518 26.0156C32.6978 26.4673 32.0629 26.7955 31.3469 27C30.6396 27.2045 29.8597 27.3068 29.0075 27.3068ZM31.3086 22.858C31.8455 22.858 32.3484 22.7472 32.8171 22.5256C33.2944 22.304 33.6822 21.9844 33.9805 21.5668C34.2788 21.1491 34.4279 20.642 34.4279 20.0455V18.4091C34.2404 18.4858 34.0401 18.5582 33.8271 18.6264C33.6225 18.6946 33.4009 18.7585 33.1623 18.8182C32.9322 18.8778 32.685 18.9332 32.4208 18.9844C32.1651 19.0355 31.8967 19.0824 31.6154 19.125C31.07 19.2102 30.6225 19.3509 30.2731 19.5469C29.9322 19.7344 29.6765 19.9688 29.506 20.25C29.3441 20.5227 29.2631 20.8295 29.2631 21.1705C29.2631 21.7159 29.4549 22.1335 29.8384 22.4233C30.2219 22.7131 30.712 22.858 31.3086 22.858ZM58.8168 9C58.7486 8.14773 58.429 7.48295 57.858 7.00568C57.2955 6.52841 56.4389 6.28977 55.2884 6.28977C54.5554 6.28977 53.9545 6.37926 53.4858 6.55824C53.0256 6.72869 52.6847 6.96307 52.4631 7.26136C52.2415 7.55966 52.1264 7.90057 52.1179 8.28409C52.1009 8.59943 52.1563 8.88494 52.2841 9.14062C52.4205 9.38778 52.6335 9.61364 52.9233 9.81818C53.2131 10.0142 53.5838 10.1932 54.0355 10.3551C54.4872 10.517 55.0241 10.6619 55.6463 10.7898L57.794 11.25C59.2429 11.5568 60.483 11.9616 61.5142 12.4645C62.5455 12.9673 63.3892 13.5597 64.0455 14.2415C64.7017 14.9148 65.1832 15.6733 65.4901 16.517C65.8054 17.3608 65.9673 18.2812 65.9759 19.2784C65.9673 21 65.5369 22.4574 64.6847 23.6506C63.8324 24.8438 62.6136 25.7514 61.0284 26.3736C59.4517 26.9957 57.5554 27.3068 55.3395 27.3068C53.0639 27.3068 51.0781 26.9702 49.3821 26.2969C47.6946 25.6236 46.3821 24.5881 45.4446 23.1903C44.5156 21.7841 44.0469 19.9858 44.0384 17.7955H50.7884C50.831 18.5966 51.0313 19.2699 51.3892 19.8153C51.7472 20.3608 52.25 20.7741 52.8977 21.0554C53.554 21.3366 54.3338 21.4773 55.2372 21.4773C55.9957 21.4773 56.6307 21.3835 57.142 21.196C57.6534 21.0085 58.0412 20.7486 58.3054 20.4162C58.5696 20.0838 58.706 19.7045 58.7145 19.2784C58.706 18.8778 58.5739 18.5284 58.3182 18.2301C58.071 17.9233 57.6619 17.6506 57.0909 17.4119C56.5199 17.1648 55.7486 16.9347 54.777 16.7216L52.169 16.1591C49.8509 15.6562 48.0227 14.8168 46.6847 13.6406C45.3551 12.456 44.6946 10.8409 44.7031 8.79545C44.6946 7.13352 45.1378 5.6804 46.0327 4.43608C46.9361 3.18324 48.1847 2.20739 49.7784 1.50852C51.3807 0.809658 53.2173 0.460226 55.2884 0.460226C57.402 0.460226 59.2301 0.81392 60.7727 1.52131C62.3153 2.22869 63.5043 3.22585 64.3395 4.51278C65.1832 5.79119 65.6094 7.28693 65.6179 9H58.8168Z" fill="#EF731B"/>
</svg>
